<svg width="32" height="32" fill="none" xmlns="http://www.w3.org/2000/svg"><g clip-path="url(#clip0_547_1593)"><path d="M16 32c8.837 0 16-7.163 16-16S24.837 0 16 0 0 7.163 0 16s7.163 16 16 16z" fill="#7289E9"/><path d="M20.5 8.4c0-.2-.2-.4-.4-.4h-2.2c-2.3-.1-4.2 1.6-4.4 3.9v2.4h-2.2c-.2 0-.4.2-.4.4V17c0 .2.2.4.4.4h2.2v5.9c0 .2.2.4.4.4h2.6c.2 0 .4-.2.4-.4v-5.9h2.3c.2 0 .4-.1.4-.3l.6-2.3c.1-.2-.1-.5-.3-.5H17v-2.4c0-.4.4-.8.9-.8h2.2c.2 0 .4-.2.4-.4V8.4z" fill="#fff"/></g><defs><clipPath id="clip0_547_1593"><path fill="#fff" d="M0 0h32v32H0z"/></clipPath></defs></svg>