<svg width="32" height="32" fill="none" xmlns="http://www.w3.org/2000/svg"><path d="M16 32c8.837 0 16-7.163 16-16S24.837 0 16 0 0 7.163 0 16s7.163 16 16 16z" fill="#7289E9"/><g clip-path="url(#clip0_547_1601)" fill="#fff"><path d="M19.3 13.3c-2.8 0-5.1 2.3-5.1 5.1v5.1c0 .4.4.8.8.8h1.8c.4 0 .8-.4.8-.8v-5.1c0-.9.8-1.7 1.7-1.7h.2c.9.1 1.5.9 1.5 1.8v5.1c0 .4.4.8.8.8h1.8c.4 0 .8-.4.8-.8v-5.1c0-2.9-2.3-5.2-5.1-5.2zM9.4 14.1h2.4c.4 0 .8.4.8.8v8.7c0 .4-.4.8-.8.8H9.4c-.4 0-.8-.4-.8-.8v-8.7c0-.4.4-.8.8-.8zM10.6 12.6a2 2 0 100-4 2 2 0 000 4z"/></g><defs><clipPath id="clip0_547_1601"><path fill="#fff" transform="translate(6 6)" d="M0 0h21v21H0z"/></clipPath></defs></svg>