<svg width="19" height="18" fill="none" xmlns="http://www.w3.org/2000/svg"><path d="M9.266 0c-4.97 0-9 4.031-9 9s4.03 9 9 9a9 9 0 009-9c.004-4.969-4.028-9-9-9zm0 17.101c-.714 0-1.632-1.327-2.192-3.6h4.387c-.564 2.273-1.482 3.6-2.195 3.6zm-2.384-4.498a19.366 19.366 0 01-.305-3.152h5.381a19.896 19.896 0 01-.305 3.152H6.882zM1.188 9.451h4.486a21.07 21.07 0 00.293 3.152H2.021a8.04 8.04 0 01-.833-3.152zM9.266.9c.713 0 1.631 1.327 2.19 3.6H7.075C7.635 2.227 8.557.9 9.267.9zm2.387 4.5c.174.93.282 1.986.305 3.152H6.577c.023-1.162.135-2.219.305-3.152h4.771zM5.674 8.553H1.188A8.04 8.04 0 012.02 5.4h3.946a20.94 20.94 0 00-.293 3.152zm7.183.898h4.487a8.04 8.04 0 01-.834 3.152h-3.946c.174-.972.274-2.037.293-3.152zm0-.898a20.99 20.99 0 00-.293-3.152h3.946a8.1 8.1 0 01.834 3.152h-4.487zm3.14-4.051h-3.614c-.332-1.435-.814-2.62-1.397-3.414a8.12 8.12 0 015.011 3.414zM7.55 1.088c-.583.79-1.065 1.979-1.397 3.414H2.534a8.128 8.128 0 015.015-3.414zM2.534 13.502h3.615c.331 1.435.814 2.62 1.396 3.414a8.13 8.13 0 01-5.011-3.414zm8.448 3.414c.583-.79 1.065-1.979 1.397-3.414h3.614a8.099 8.099 0 01-5.01 3.414z" fill="#1B1B1B"/></svg>